<mxfile host="app.diagrams.net" modified="2021-06-26T05:40:42.666Z" agent="5.0 (Windows)" etag="eOdJlmp8KJbZy33sJp80" version="14.8.1" type="github">
  <diagram id="iN_YrWrjNkcf0ZzbpL6N" name="Page-1">
    <mxGraphModel dx="872" dy="1111" grid="1" gridSize="10" guides="1" tooltips="1" connect="1" arrows="1" fold="1" page="1" pageScale="1" pageWidth="827" pageHeight="1169" math="0" shadow="0">
      <root>
        <mxCell id="0" />
        <mxCell id="1" parent="0" />
        <mxCell id="dF-5xohN_CYOsUC96v3O-2" value="" style="ellipse;whiteSpace=wrap;html=1;aspect=fixed;fillColor=#ffcc99;strokeColor=#36393d;" vertex="1" parent="1">
          <mxGeometry x="100" y="99" width="300" height="300" as="geometry" />
        </mxCell>
        <mxCell id="dF-5xohN_CYOsUC96v3O-3" value="&lt;b&gt;missing_values&lt;/b&gt;=np.nan," style="rounded=1;whiteSpace=wrap;html=1;fillColor=#fff2cc;strokeColor=#d6b656;" vertex="1" parent="1">
          <mxGeometry x="167.5" y="279" width="165" height="30" as="geometry" />
        </mxCell>
        <mxCell id="dF-5xohN_CYOsUC96v3O-5" value="&lt;b&gt;strategy&lt;/b&gt;=&#39;mean&#39;" style="rounded=1;whiteSpace=wrap;html=1;fillColor=#fff2cc;strokeColor=#d6b656;" vertex="1" parent="1">
          <mxGeometry x="185" y="319" width="130" height="30" as="geometry" />
        </mxCell>
        <mxCell id="dF-5xohN_CYOsUC96v3O-6" value="" style="ellipse;whiteSpace=wrap;html=1;aspect=fixed;fillColor=none;" vertex="1" parent="1">
          <mxGeometry x="115" y="114" width="270" height="270" as="geometry" />
        </mxCell>
        <mxCell id="dF-5xohN_CYOsUC96v3O-7" value="" style="ellipse;whiteSpace=wrap;html=1;aspect=fixed;strokeColor=#b85450;fillColor=#C21D1D;" vertex="1" parent="1">
          <mxGeometry x="237.5" y="236.5" width="25" height="25" as="geometry" />
        </mxCell>
        <mxCell id="dF-5xohN_CYOsUC96v3O-8" value="&lt;font size=&quot;1&quot;&gt;&lt;b style=&quot;font-size: 26px&quot;&gt;SimpleImputer&lt;/b&gt;&lt;/font&gt;" style="text;html=1;strokeColor=none;fillColor=none;align=center;verticalAlign=middle;whiteSpace=wrap;rounded=0;" vertex="1" parent="1">
          <mxGeometry x="236" y="189" width="40" height="20" as="geometry" />
        </mxCell>
        <mxCell id="dF-5xohN_CYOsUC96v3O-10" value="&lt;b&gt;fit.()&lt;/b&gt;" style="ellipse;whiteSpace=wrap;html=1;aspect=fixed;fillColor=#fff2cc;strokeColor=#d6b656;" vertex="1" parent="1">
          <mxGeometry x="418.25" y="180" width="101.5" height="101.5" as="geometry" />
        </mxCell>
        <mxCell id="dF-5xohN_CYOsUC96v3O-11" value="Feed the dataset here." style="text;html=1;align=center;verticalAlign=middle;resizable=0;points=[];autosize=1;strokeColor=none;" vertex="1" parent="1">
          <mxGeometry x="419" y="90" width="150" height="20" as="geometry" />
        </mxCell>
        <mxCell id="dF-5xohN_CYOsUC96v3O-12" value="" style="shape=image;html=1;verticalAlign=top;verticalLabelPosition=bottom;labelBackgroundColor=#ffffff;imageAspect=0;aspect=fixed;image=https://cdn4.iconfinder.com/data/icons/top-search-7/128/_hand_share_aims_request_gesture_palm-128.png;fillColor=#C21D1D;" vertex="1" parent="1">
          <mxGeometry x="385" y="229" width="128" height="128" as="geometry" />
        </mxCell>
        <mxCell id="dF-5xohN_CYOsUC96v3O-14" value="&lt;div&gt;Feed the data here, &lt;br&gt;&lt;/div&gt;&lt;div&gt;I do the work.&lt;br&gt;&lt;/div&gt;" style="shape=callout;whiteSpace=wrap;html=1;perimeter=calloutPerimeter;strokeWidth=2;position2=0;base=15;" vertex="1" parent="1">
          <mxGeometry x="400" y="80" width="170" height="90" as="geometry" />
        </mxCell>
        <mxCell id="dF-5xohN_CYOsUC96v3O-16" value="" style="shape=image;verticalLabelPosition=bottom;labelBackgroundColor=#ffffff;verticalAlign=top;aspect=fixed;imageAspect=0;image=data:image/png,iVBORw0KGgoAAAANSUhEUgAAAbAAAADzCAYAAADn9UNcAAAW3UlEQVR4nO3cybWjOhSF4ZdKZXETcCyeEgQzYmBCBl6LELzIgHj0BjZYzVFD4+bAP/gGdY2xEQdtSeD67+/vzwAAoM1/3/4CAACsQYABAFQiwAAAKhFgAACVCDAAgEoEGABAJQIMAKASAQYAUIkAAwCoRICtMI6jGcfx69/j29/nDJ97hmP89rFq/V6fOMYzHPsWBNgKv1ZUue/zru+ruXMv3ceZ2vbX6vrXv9cnjvEMx74FAbaCtqI6Uie71+fu9d2P1Lba6vpIaPt1CLAVSopt2iY1qkpt429b1/WqUVrJZ0l/z20b+z5Lju1d7V96vEva/wxtK+2/5NjXHvPSz1p7DpZcSyXtk3v/0uNae23vXetL62NtO+35nQiwDSey5PWSi7mkeJd2GFtfz/1N+j5LOut3tf+att3rXGtv2y3fdel+lhzP3ud7bcdpd8q5znnr+d7r2EvbZ2ltrG3nveuYAFthSVGVnPwtF0JJAezRye7dKb2r/Uu3/aUA+5W2/eR33eMcbmmnbwbYntf2Hp/9rlr5RB0TYDudvC0n8WgBJvlU+8e+x9J9nLFtPx22pcegMcBS5+kd13asLfcMsKWf9Yk6JsA2nMjS184WYL/U/kcLsE+36zsDzH9tyTW19bPfHWBb2/ldx762jvZq573rmABb4RMB5v89dZGfqZNd2v4E2LZ2/USAbTlXe19Lue9HgG1rZwLsByzptLYW1fTaHk8qlb4eu8DXFOc7Ot7SizrVUX0rwH65bUs/Y219rz2ePQLMfm3LU4i/+hBHSV1tqZnS75tr573rmABboaTBlxTllgthj+/jv14Slhoeo7e/Y+pYtgTUkdp2Tc1tOebS49kaYHt1miUBtua49hicxmp9rwBb81m5v+1RxwTYD/tEGABnkLuWpNfPcs3teeyfbj8CDACgEgEGAFCJAAMAqESAAQBUIsAAACoRYAAAlQgwAIBKBBgAQCUCDACgEgEGAFCJAAMAqBQNsH///gEA8LOiAXa5XAAA+FkEGABAJQIMAKASAQYAUIkAAwCoRIABAFQiwAAAKhFgAACVCDAAgEoEGABAJQIMAKASAQYAUIkAAwCotE+ANb0Zx9GMQ2cq6+9VNzz+LvG2vVSdGZxtetM4n9OYPvX+4v0cTWW6YTR9I//dbvNwm9w+MvuUzsFUC+NoxnEwXfXt9nkTr86GrrJe92q1pG6D90ht57V/33y/HXBsyTp/cq75fD/i5sK2/nlTgAUBtTbAvAYIDyzSIfidQXY/x9L0iaJperfYqs4MQqeY3If0eXOn+exM7U606d32bvrDhljT2bX3qM90+6UHCVU3uK/5bfl8/+ucCu0P7Cxb536/krnmH5nwquuqGxKDurwdAmwwXSfPwOLvsRvBCqfIxTgH4bz/6T12Q+X3cySvE1/SeT6LsXdHUMv20ZjeL8yqM8NcjH4HK3/mUVXdkK67pl94oXqBFwSa3/7A+/l1LtV9/JqXBnHl/ZfkrUuIgWk6Ks2+Eu+dZgn2QU5/mxuq9DsczvoAW7aPsgDz95Ht2A8iHdSlS7SJ94gBKJwT4I3EQXBpgEUGXFsGuR8NMCmIptnV0DXO+n6wVOJdqPOs7Nl4+f0cVWmApbYr24c73ZeXtMQAO/qgIjcTWjz7ushLM2KArR+9AouIde7VoLRScLFeE64D99bEMp8LMGn2dbFmUkN4v+zRKNJyYRhg+f0cVfn9l3iRlHeE9n1Nf3Dgr2/Hzvkh2De3CwZuywZSj/MhPRhi/00aEAK7Kqpz+xmF5QO5Las0Hwuw1wwpvEfi37dy/5aegU37y+/nB4phS/FEiyMTPtM+km1QuoQYu4cWnpe5Hppeb/svPE/x5dkF96me11Jqqfc1MKtMN7CEiA8R6jwYtKb6Er0zsCmEwgs5fKjD2p8TYOl7YPn9/EABvEWmYDYvL6aKL39vp+qGEyzjXqLLiEtGl/NDUcWBtDAcga0K7ntHl8zV3gNLLSUJ742F07zNPDPxH99M7+eYIuETeWx+0T4s8r0s+clDd78nmSEkLs6iJb7UvYPUOTn04Aw/x6nzSL8RrWVp+219xEcCLLZ8+BD+4DZYLguW0qSlwYL9HJJcRMum5fI+nNB6noPwARx7ENFZhXjg3ylVnemdWo4FeeLidAYYuYHAc5vO/83dSQYH+I6COm96v99/LnNP1703kPYHwlsHYR8JsPzNZj98hNDxQ0w86IL9HE4iwKTQF89RQYDZxRlt3+o0T4D6P9Jf8tjw6zU3wMTzFfxQ/Ey1jW8rqfPkNsJKkNM3bXzAi/8LEQCgEgEGAFCJAAMAqESAAQBUIsAAACoRYAAAlQgwAIBKBBgAQCUCDACgEgEGAFApGmAAAPwyAgwAoBIBBgBQiQADAKhEgAEAVCLAAAAqEWAAAJUIMACASgQYAEAlAgwAoBIBBgBQiQADAKhEgAEAVNonwOqbGcfRjPfWXIXX69v4eP3p3l7DfVxbcx/t7W6mTr1+q+PfYxL5PsdyNe19NLda/rvdHuE2uX1k9imcA/dce+fwSLx6dGu6NrfRbfuimvT2GZwPv75j1wGwu9rcxrtpr6ltnv1Dpiav7X23PmJTgLlfRL44/fASL3jpwnQOLNIh2A0VBODxQ8xuW6mzc9r42pq7UIDJfQjF+dqnUKzX1rTWPq7t/bDtX7f2cT3qs6T9ots863d+XThf1/ZOYOHD7EFrJsCmfjxRo4/MePXtW/uIHQLsbto2NgObgud14HPozdta4RQ98Nrc7NekGd+1Nbegwy5odKVeJ76k83yob+7AYdE+6ltkVpwaQZWM2o4hGy71LXmhSu+vb+41cW3v8uoF8CZzDUYGwC+Pa/12S10H0iCuvP+SvHkJcUpvIcCmg8wsPyY/LzkaDT/7mNYH2KJ9iB1wJqCyAXcc8bb9M/kl2sjrXpunPwN4o0yATbWZHMhF+oMtdf2Be2DC8p83qnwsKdbO/ZXggPxlxtxSyjwDO3oHWhpgqe22BFj8fafpcHNBnZl9RQcC3qw3WI5nORGfkgowq76TARa5DvyVhiXeH2CZ+1vTRXm/34PtnI4x2E9i5G9tu3Zqqkf5/ZfkEm12H49t7ECazp39vvJ7asrZ91wzqwf5II8EWDIYnwNDQgyfEAswr0bXBNiWe7vvDTBpFuRtO3d41gFIfxM/LzIdPUwHmnsy8+/PZMNn2keyQJbN4l7tezXtPb2scPwZ8KuN48uzuTYom4HJn3uC9sX3iQEW1u2xZmDivaqpE3xceNMSojjbytwM9Gdhc3gd9Mk3WSJ8nu24bXkx9750B3r2ZcSy0WXZPbDSzwR2F3sqVnryO7ZCpu4emDRT8v8mvHdeVnwe1LW9R5YTrf1OM41ThdefiYZP9qmhgn1klHTOZw+w+lb+gI30FGKy7XIzNGAvhf1Juk+Q+pltTyq/+R5Y4ged80GGP7j1wyma9MLDIEUjgUORw2fZtFzeh/sbjatpW/+nDP4M2OtMj9rB+j/ZCH4jZ7drpP78DkH8t/dbSGEl4xSDA3zf2gDz3uf/7mvrbxs/8BRiGFDhRedvk763Je2DAEu3V/qH3SUB9uc9SBO/H5fe5hj8eov/7zKRNpA6BKd9w7r1P1P9PV7osVOA/f15fdPGFTP+L0QAgEoEGABAJQIMAKASAQYAUIkAAwCoRIABAFQiwAAAKhFgAACVCDAAgEoEGABAJQIMAKBSNMAulwsAAD+LAAMAqESAAQBUIsAAACoRYAAAlQgwAIBKBBgAQCUCDACgEgEGAFCJAAMAqESAAQBUIsAAACoRYAAAlfYJsKY34ziacehMtXa7qjPDOD5eH0czjr1p5tcr0w32a2NkP43pk68f0aNt+ibT7n5bTOdCMHSVuJ+qG9xt+ybczjuPye+lmXecYZt5tTgOpqti+/O3DWs4aPsztDG+L1vnL1U3yH2CtJ3Yzy+3KcCCiyoZGFYIFXWmSwMs0gkcOMSaPtOJ2cVX0g5VZ4ZoQTWmd/bxOCdOQT8/b/4uVWeGZMetV9OFtWefg6ob3HPS9Asv1pUDE2BHuTq/XC5u/50JsEdmvK6Dqhs21fAOATaYrsvPwJywiwVP9OCf25Tsf95m2u8xO9DXiY8UlfX30iJp+vQIK+B1oNIIrOnzRX0E+dFnQSAl2nbz/oAdBHVuDVLz17pUs7H+q8xnlhCfI/Oh7x8zAnu7ouXHfIBNsxG7Iaa/LeqU1ckXQFGAJWdfifM+7zfSoZ5klpAP/yWBw+wLvylV59kAi/QxiwfOlg8E2HP5b+hMNS1p+aP2cTRD1zjLhO4BCcuDwnKWP9uaZ2WHngHsE2Brisgt2Mb00mx38dKZQiXhv2Q5ldkXflGmzrMBFqnrLas0bw+wxyzoeeEKATbPkobwJrV7LyV1f0teLiTArHbIznCXLbX6a9nRfayZ2Wmw6P7i4xyVDhCyg4mjtil+z4I6XxtgpQ9/SN4aYFOABEEkBJh9ANLf5EadOsz0DEztEmLyyczJDgHW9AsKaGpr/7ucfQYWqbPntVFeg43pM+1VdYPemoZeqTq/HG4GFnly0HusOAg5e3/Rg/ID6/VZ3AMLpQNsyXLUc6Yrnpdz3wOTZkXzQ05LZ7bJi3n5bBnYTWL2f7B7YGUBJr03CJ6mlwPOfxzT3k8wSzuqrQGWH/Hb5zNVaFIBbylOVfyLc+XMs+kzg4mqM8MZBgT4TVsCTOyrtg3IPvtDZmEJMR50fmcgbBM8zpnZ5pA2BlhihuS8r6RD9h9UOOq9mqozvRPKfrjnw15+qCN/MW+5XwAskq1zlxhgXp37fdHWev6BAHs1TPxeTxhyYiP6IXaKC31bgKUKKAywxEzar4WDz379H/EPwoWeHHRJAVYQ+KeZ0eInpOvcVRJg83bFD0Cl8X8hAgBUIsAAACoRYAAAlQgwAIBKBBgAQCUCDACgEgEGAFCJAAMAqESAAQBUIsAAACpFAwwAgF9GgAEAVCLAAAAqEWAAAJUIMACASgQYAEAlAgwAoBIBBgBQiQADAKhEgAEAVCLAAAAqEWAAAJUIMACASvsHWH0z4zjO7u3V2+Zq2vvobHOrw/3UN3ubu2mv4TbX9p7dz/E92jN57PXNjPfWXIXXnHaObOOqza2gza/t3Yy3+gfa502urbkn69xqh8L2dWv+ZurkOZCvCWBPfh8bXtNhfx7rr+V9puo8b98A8y5q6eJ2L1K5IwwaTWgUeZtzhZjdluJx2+dD6Dzrm1uQ9S3XyT7Cyzmfrbe9PYA5cIC5x/1oF/8cPGrUukCvrWlj9em9dm3vwrmwOwsCDO9Wm5tTg4/6cwdrywZT/jUh13m53QPsZh3cHDJOJ+km7twJW9tc25vVIK+L9tVBvGYB09+kzzqy14mXO0+7UxWL5Nqae1B46WKsb/GZhr9PPxyPLphxXltz3zS6DM/F3KbiuQM+IFjNqc2tuM6l1aJY/1XmrffAplBJdnrTiD3a2U0BZl2w08zCbsh5trFtSqpPvgDiAea3VWo5ctlI62wB5of75iXUVAASYPgWP8CWDNQi22YHxgm7B5i/tJf7YtMMzN3OX1f1LlYx9KZZ2dku7P0DTDxn0/bOPc70bO00ASa05eOirN06XtAeyYuaAMOXBNd1cNsoUZeRe/Fb+oq3B1h8RmSFVHKtX1pilJYLCbDkOYm1sdCuYsdZ38x4v5t7sL18fg8fYMn7i8+BwN1eCg/vH4ptVnIvlwDDF6Sud3ebSG1GAmzLasVHlhDl0X/pk2+vMJsv/uQM7EBLiMHoRjq2tQHmtu3UvvUtsq/6Jnx+fMnx8AEmnKdXOEVmsomnQcX2YwkRP2HqJ8r61ujqgYYZmEsIFatTLr5x5wfW9G/ugZltAea7mvaeGD0tWL8+VYD9/XnLiJEAW/hgR7QjIMDwMc8+fI/l71+/B1bfIo+6W53ntEwS73DlRzfdpa3wKUTpacZz2DHAkjME6SEOZmAz7+IUl0UWzMCmNiTA8D2Je+Kr3iP1Vdt+07hzgMm/8ZKCJzBf7LFthEeKM9ucw/oAc37L9JzBBr/H8wcf1r9TwXjoAPN+LiJetEF7eufJCyH/5yWxGa/0XuAtUjX45P7kSf7to12rfp+x9WndnZcQc//LRkmA/RXe+yn73zqOb8MMzGnnsP2k95X+zx2HDrC/wqdtvTp2zlEQQv61keg4CDB8gve/Ksl9rVe3Bb83Xf6//8TxfyECAFQiwAAAKhFgAACVCDAAgEoEGABAJQIMAKASAQYAUIkAAwCoRIABAFQiwAAAKhFgAACVogF2uVwAAPhZBBgAQCUCDACgEgEGAFCJAAMAqESAAQBUIsAAACoRYAAAlQgwAIBKBBgAQCUCDACgEgEGAFCJAAMAqLR/gDW9GcdxNnRV8vVJ37xhm1OoTDdkjrvpzTh0phJea3q7/XrTLDi34ziasW8S2wymq77dPm9SdWZI1blwjoK2cjSmd9pWaLtFnwnsqTF9UJN+zVoi/c3lcjFVN5T3ORn7Bph3gYkXGgG2Gzt8xOO2z4dQUFU3OH9v+oLCS3XCTe8WZNMfNsSazm6nx4Ucrb2pVhNtV3WDUN/uxb3oM4FdPAdfxQPS9ID6EV6vuvb7oKV2D7DeCqs5aa0Ld/pb6sLba5sje534WEf2+rtcJFKhSaMs9zPjo/7H/vzXm/4cM4V4uD/atO8z4R9pz+w1sGifwDJN/+y/q84MJQGWWO2J9znr+/G33gObQmYQQo0A20u+APYKsHQYyR3uWTrZWNtMf1/eDvkAO8vgAD+gKMAyNVt1ZhCWDLfU8e4B5q5vhl/Mf10Kob22OYe1AXYJlqnm0VZkP+79Mn/bRIBtWCJQIXJh2qPRxQGW6zBinwm8Q0mAJWdf8ddz/U7K2wMsWMf3O0EhfPba5hw2BNhUVLEHMgo+N1wets73dA/uiAGWub/oB8yyAHu0bTAqzX0m8C4FAZadSUUCbMsqzUeWEFMX2xxEJSP/jduoEzwUI424ty0hOu0lPDiQ/37u9s4AZuhM1fTHOieJ8/S6eMOl2OKL9DmgyC6pBJ8JvFE2wBrTlzzF/OszsPCgMo9KFjyhtds2h7QywPZYjy5Yxko/+HEgVltIy9slPy14vG/BU5ssI+JTMgFWNED79XtgTS+MOp0ZWGW63u5IX49ovg5gr23OYmWARWZbi0ZD2Rlb+qGQQ8mEyeKfIOzwmcBuMgHW9CW3b6S+alsfsXOAyaNOJ3iG3Kh0r23OYu0SonCf5TmLnfblvq8xvdMBS+/vwnN0xBmx93OR2E8IgnNgt4XTIeTfv+Yzgd0kAywRQt77/L5o61PKOy8hhsESdKzBD5AjT2/tsc0pbHmIwz9fwgzaL7bkAzPu/o7cueaethW3zwSYuOQo/IbyDO2LH5MKsNRKgPA+Z6Kz8WEk/i9EAIBKBBgAQCUCDACgEgEGAFCJAAMAqESAAQBUIsAAACoRYAAAlQgwAIBKBBgAQKVogAEA8MsIMACASgQYAEAlAgwAoBIBBgBQiQADAKhEgAEAVCLAAAAqEWAAAJUIMACASgQYAEAlAgwAoBIBBgBQiQADAKhEgAEAVCLAAAAqEWAAAJUIMACASgQYAEAlAgwAoBIBBgBQiQADAKj0vQC7tuY+jmYcb6Yu+Td+17U19/Fu2uuf+furzW0cza1+vHZt72a8t+b67e+oVqI9nXYHfleqbuvbaMZbvWq/BBh2OpcE2HsQYNDveAEGAMAGBBgAQCUCDACgEgEGAFCJAAMAqESAAQBUIsAAACoRYAAAlQgwAIBKBBgAQCUCDACgUjTALpcLAAA/iwADAKj0P/evto3MSLyKAAAAAElFTkSuQmCC;" vertex="1" parent="1">
          <mxGeometry x="480" y="309" width="339.56" height="191" as="geometry" />
        </mxCell>
        <mxCell id="dF-5xohN_CYOsUC96v3O-18" value="" style="edgeStyle=segmentEdgeStyle;endArrow=classic;html=1;strokeWidth=9;" edge="1" parent="1">
          <mxGeometry width="50" height="50" relative="1" as="geometry">
            <mxPoint x="640" y="310" as="sourcePoint" />
            <mxPoint x="530" y="230" as="targetPoint" />
            <Array as="points">
              <mxPoint x="640" y="310" />
              <mxPoint x="640" y="230" />
            </Array>
          </mxGeometry>
        </mxCell>
      </root>
    </mxGraphModel>
  </diagram>
</mxfile>
